<svg width="240" height="240" viewBox="0 0 240 240" fill="none" xmlns="http://www.w3.org/2000/svg">
<circle cx="120" cy="120" r="120" fill="#0071BB"/>
<path d="M136.83 123.003L168.385 91.4482C171.872 87.9617 171.872 82.3092 168.385 78.8281L164.178 74.6214C160.691 71.1338 155.038 71.1338 151.557 74.6214L120.003 106.175L88.4482 74.6149C84.9617 71.1284 79.3092 71.1284 75.8281 74.6149L71.6149 78.8216C68.1284 82.3092 68.1284 87.9617 71.6149 91.4427L103.175 123.003L71.6214 154.557C68.1338 158.045 68.1338 163.697 71.6214 167.178L75.8281 171.385C79.3146 174.872 84.9671 174.872 88.4482 171.385L120.003 139.83L151.557 171.385C155.045 174.872 160.697 174.872 164.178 171.385L168.385 167.178C171.872 163.691 171.872 158.038 168.385 154.557L136.83 123.003Z" fill="white"/>
</svg>
